<svg xmlns="http://www.w3.org/2000/svg" xmlns:xlink="http://www.w3.org/1999/xlink" version="1.1" width="1000" height="1000" viewBox="0 0 1000 1000" xml:space="preserve">
<desc>Created with Fabric.js 3.5.0</desc>
<defs>
</defs>
<rect x="0" y="0" width="100%" height="100%" fill="rgba(102,51,51,0)"/>
<g transform="matrix(5.1531 0 0 5.1531 1789.9209 500.0031)" id="274007">
<g style="" vector-effect="non-scaling-stroke">
		<g transform="matrix(1 0 0 1 101.9 7.6275)" id="Alpine.js">
<path style="stroke: none; stroke-width: 1; stroke-dasharray: none; stroke-linecap: butt; stroke-dashoffset: 0; stroke-linejoin: miter; stroke-miterlimit: 4; is-custom-font: none; font-file-url: none; fill: rgb(45,52,65); fill-rule: nonzero; opacity: 1;" transform=" translate(-452.9, -74.6275)" d="M 236.145 101 L 240.16 88.02 L 265.625 88.02 L 269.64 101 L 288.175 101 L 264.69 27.19 L 242.305 27.19 L 217.445 101 L 236.145 101 Z M 261.61 74.985 L 244.615 74.985 L 253.25 47.98 L 261.61 74.985 Z M 317.05 101 L 317.05 25.1 L 299.45 25.1 L 299.45 101 L 317.05 101 Z M 353.35 127.29 L 353.349 98.719 L 353.403988 98.7692 C 353.956452 99.2796 354.54746 99.7372 355.177012 100.142 L 355.495 100.34 C 358.171667 101.953333 361.508333 102.76 365.505 102.76 C 370.088333 102.76 374.3875 101.623333 378.4025 99.35 C 382.4175 97.0766667 385.6625 93.795 388.1375 89.505 C 390.6125 85.215 391.85 80.0266667 391.85 73.94 C 391.85 67.8166667 390.630833 62.61 388.1925 58.32 C 385.754167 54.03 382.591667 50.7483333 378.705 48.475 C 374.818333 46.2016667 370.711667 45.065 366.385 45.065 C 363.121667 45.065 360.041667 45.8991667 357.145 47.5675 C 355.0594 48.7687 353.263672 50.497372 351.757816 52.753516 L 351.541 53.086 L 350.105 46.825 L 335.75 46.825 L 335.75 127.29 L 353.35 127.29 Z M 362.7 86.7 C 361.013333 86.7 359.455 86.3883333 358.025 85.765 C 356.595 85.1416667 355.458333 84.28 354.615 83.18 C 353.771667 82.08 353.35 80.7966667 353.35 79.33 L 353.349 79.33 L 353.349 70.42 L 353.3555 70.0419667 C 353.403167 68.4181222 353.760667 66.9801778 354.428 65.7281333 L 354.5875 65.4425 C 355.4125 64.0308333 356.558333 62.94 358.025 62.17 C 359.491667 61.4 361.16 61.015 363.03 61.015 C 365.34 61.015 367.329167 61.5466667 368.9975 62.61 C 370.665833 63.6733333 371.958333 65.1766667 372.875 67.12 C 373.791667 69.0633333 374.25 71.3366667 374.25 73.94 C 374.25 77.02 373.635833 79.495 372.4075 81.365 C 371.179167 83.235 369.675833 84.5916667 367.8975 85.435 C 366.119167 86.2783333 364.386667 86.7 362.7 86.7 Z M 416.325 39.84 C 419.551667 39.84 422.1 38.9875 423.97 37.2825 C 425.84 35.5775 426.775 33.1666667 426.775 30.05 C 426.775 27.0066667 425.84 24.5775 423.97 22.7625 C 422.1 20.9475 419.551667 20.04 416.325 20.04 C 412.988333 20.04 410.4125 20.9475 408.5975 22.7625 C 406.7825 24.5775 405.875 27.0066667 405.875 30.05 C 405.875 33.1666667 406.7825 35.5775 408.5975 37.2825 C 410.4125 38.9875 412.988333 39.84 416.325 39.84 Z M 425.125 101 L 425.125 46.495 L 407.525 46.495 L 407.525 101 L 425.125 101 Z M 462.965 101 L 462.965 78.175 L 462.968125 77.6150568 C 463.009792 73.9158144 463.468125 70.8908144 464.343125 68.5400568 L 464.4775 68.1925 C 465.485833 65.6808333 466.833333 63.8566667 468.52 62.72 C 470.206667 61.5833333 472.058333 61.015 474.075 61.015 C 476.055 61.015 477.741667 61.7025 479.135 63.0775 C 480.528333 64.4525 481.225 66.57 481.225 69.43 L 481.225 69.43 L 481.225 101 L 498.935 101 L 498.935 69.43 C 498.935 64.7 498.238333 60.5016667 496.845 56.835 C 495.451667 53.1683333 493.279167 50.29 490.3275 48.2 C 487.375833 46.11 483.571667 45.065 478.915 45.065 C 474.845 45.065 471.205833 46.2016667 467.9975 48.475 C 466.006121 49.8860345 464.276073 51.7985434 462.807357 54.2125268 L 462.656 54.466 L 460.875 46.825 L 445.365 46.825 L 445.365 101 L 462.965 101 Z M 537.82 102.76 C 542.293333 102.76 546.244167 101.953333 549.6725 100.34 C 553.100833 98.7266667 555.8875 96.545 558.0325 93.795 C 560.1775 91.045 561.525 87.9833333 562.075 84.61 L 562.075 84.61 L 544.585 84.61 C 544.108333 86.04 543.265 87.085 542.055 87.745 C 540.845 88.405 539.433333 88.735 537.82 88.735 C 535.84 88.735 534.199167 88.2675 532.8975 87.3325 C 531.595833 86.3975 530.615 85.0866667 529.955 83.4 C 529.295 81.7133333 528.965 79.715 528.965 77.405 L 528.966 77.515 L 561.525 77.515 C 562.393421 73.6244737 562.562535 69.8409003 562.032341 66.1642798 L 561.9375 65.5525 C 561.295833 61.6841667 559.939167 58.21 557.8675 55.13 C 555.795833 52.05 553.073333 49.6025 549.7 47.7875 C 546.326667 45.9725 542.366667 45.065 537.82 45.065 C 533.236667 45.065 528.946667 46.2016667 524.95 48.475 C 520.953333 50.7483333 517.726667 54.0208333 515.27 58.2925 C 512.813333 62.5641667 511.585 67.6883333 511.585 73.665 C 511.585 79.6416667 512.8225 84.8116667 515.2975 89.175 C 517.7725 93.5383333 521.008333 96.8933333 525.005 99.24 C 529.001667 101.586667 533.273333 102.76 537.82 102.76 Z M 546.179 68.605 L 529.044 68.605 L 529.045178 68.5898444 C 529.178807 67.0856963 529.479474 65.7485852 529.947178 64.5785111 L 530.0925 64.2325 C 530.844167 62.5275 531.9075 61.2258333 533.2825 60.3275 C 534.6575 59.4291667 536.28 58.98 538.15 58.98 C 539.836667 58.98 541.220833 59.3191667 542.3025 59.9975 C 543.384167 60.6758333 544.218333 61.5741667 544.805 62.6925 C 545.391667 63.8108333 545.785833 65.03 545.9875 66.35 C 546.088333 67.01 546.150208 67.6654167 546.173125 68.31625 L 546.179 68.605 Z M 580.775 101.99 C 584.258333 101.99 587.136667 100.935833 589.41 98.8275 C 591.683333 96.7191667 592.82 94.0333333 592.82 90.77 C 592.82 87.5066667 591.683333 84.7933333 589.41 82.63 C 587.136667 80.4666667 584.258333 79.385 580.775 79.385 C 577.291667 79.385 574.459167 80.4666667 572.2775 82.63 C 570.095833 84.7933333 569.005 87.5066667 569.005 90.77 C 569.005 93.9966667 570.095833 96.6733333 572.2775 98.8 C 574.459167 100.926667 577.291667 101.99 580.775 101.99 Z M 614.38 39.84 C 617.606667 39.84 620.155 38.9875 622.025 37.2825 C 623.895 35.5775 624.83 33.1666667 624.83 30.05 C 624.83 27.0066667 623.895 24.5775 622.025 22.7625 C 620.155 20.9475 617.606667 20.04 614.38 20.04 C 611.153333 20.04 608.586667 20.9475 606.68 22.7625 C 604.773333 24.5775 603.82 27.0066667 603.82 30.05 C 603.82 33.1666667 604.773333 35.5775 606.68 37.2825 C 608.586667 38.9875 611.153333 39.84 614.38 39.84 Z M 603.875 129.215 C 610.291667 129.215 615.15 127.464167 618.45 123.9625 C 621.75 120.460833 623.4 114.548333 623.4 106.225 L 623.4 106.225 L 623.4 46.605 L 605.69 46.605 L 605.69 105.895 C 605.69 109.048333 605.130833 111.156667 604.0125 112.22 C 602.894167 113.283333 601.198333 113.815 598.925 113.815 C 597.165 113.815 595.258333 113.558333 593.205 113.045 C 591.151667 112.531667 589.336667 111.963333 587.76 111.34 L 587.76 111.34 L 587.76 126.465 C 590.29 127.161667 592.801667 127.794167 595.295 128.3625 C 597.788333 128.930833 600.648333 129.215 603.875 129.215 Z M 664.54 102.76 C 669.086667 102.76 673.156667 101.916667 676.75 100.23 C 680.343333 98.5433333 683.175833 96.3525 685.2475 93.6575 C 687.319167 90.9625 688.355 88.1116667 688.355 85.105 C 688.355 81.805 687.291667 79.055 685.165 76.855 C 683.038333 74.655 680.123333 72.8216667 676.42 71.355 L 676.42 71.355 L 661.46 65.36 C 659.15 64.5533333 657.995 63.4533333 657.995 62.06 C 657.995 61.0333333 658.545 60.2083333 659.645 59.585 C 660.745 58.9616667 662.248333 58.65 664.155 58.65 C 666.465 58.65 668.115 59.0808333 669.105 59.9425 C 670.095 60.8041667 670.59 61.8216667 670.59 62.995 L 670.59 62.995 L 686.705 62.995 C 686.668333 57.7883333 684.706667 53.4983333 680.82 50.125 C 676.933333 46.7516667 671.378333 45.065 664.155 45.065 C 656.455 45.065 650.386667 46.55 645.95 49.52 C 641.513333 52.49 639.295 56.3766667 639.295 61.18 C 639.295 64.59 640.349167 67.5325 642.4575 70.0075 C 644.565833 72.4825 647.563333 74.5266667 651.45 76.14 L 651.45 76.14 L 664.595 81.255 C 665.988333 81.805 667.015 82.355 667.675 82.905 C 668.335 83.455 668.665 84.1883333 668.665 85.105 C 668.665 85.8016667 668.426667 86.4525 667.95 87.0575 C 667.473333 87.6625 666.758333 88.1483333 665.805 88.515 C 664.851667 88.8816667 663.641667 89.065 662.175 89.065 C 659.755 89.065 657.839167 88.6983333 656.4275 87.965 C 655.015833 87.2316667 654.273333 85.9116667 654.2 84.005 L 654.2 84.005 L 638.305 84.005 C 638.268333 88.2216667 639.359167 91.7141667 641.5775 94.4825 C 643.795833 97.2508333 646.885 99.3225 650.845 100.6975 C 654.805 102.0725 659.37 102.76 664.54 102.76 Z" stroke-linecap="round"/>
</g>
		<g transform="matrix(1 0 0 1 -201.4796 -5)" id="Path">
<polygon style="stroke: none; stroke-width: 1; stroke-dasharray: none; stroke-linecap: butt; stroke-dashoffset: 0; stroke-linejoin: miter; stroke-miterlimit: 4; is-custom-font: none; font-file-url: none; fill: rgb(119,193,210); fill-rule: evenodd; opacity: 1;" points="0,-39.6972 39.8721,0 0,39.6972 -39.8721,0 "/>
</g>
		<g transform="matrix(1 0 0 1 -279.766 -3.5485)" id="Path">
<polygon style="stroke: none; stroke-width: 1; stroke-dasharray: none; stroke-linecap: butt; stroke-dashoffset: 0; stroke-linejoin: miter; stroke-miterlimit: 4; is-custom-font: none; font-file-url: none; fill: rgb(45,52,65); fill-rule: evenodd; opacity: 1;" points="-21.3939,-41.1487 61.266,41.1487 -18.4782,41.1487 -61.266,-1.4514 "/>
</g>
</g>
</g>
</svg>