<?xml version="1.0" encoding="UTF-8" standalone="no"?>
<svg
   width="128"
   height="128"
   xml:space="preserve"
   version="1.1"
   id="svg2352"
   sodipodi:docname="rescript.svg"
   inkscape:version="1.2 (1:1.2.1+202207142221+cd75a1ee6d)"
   xmlns:inkscape="http://www.inkscape.org/namespaces/inkscape"
   xmlns:sodipodi="http://sodipodi.sourceforge.net/DTD/sodipodi-0.dtd"
   xmlns="http://www.w3.org/2000/svg"
   xmlns:svg="http://www.w3.org/2000/svg"><defs
     id="defs2356" /><sodipodi:namedview
     id="namedview2354"
     pagecolor="#ffffff"
     bordercolor="#000000"
     borderopacity="0.25"
     inkscape:showpageshadow="2"
     inkscape:pageopacity="0.0"
     inkscape:pagecheckerboard="0"
     inkscape:deskcolor="#d1d1d1"
     showgrid="false"
     inkscape:zoom="2.3063834"
     inkscape:cx="154.78779"
     inkscape:cy="6.2868991"
     inkscape:window-width="1920"
     inkscape:window-height="1019"
     inkscape:window-x="0"
     inkscape:window-y="33"
     inkscape:window-maximized="1"
     inkscape:current-layer="svg2352" /><path
     style="opacity:1;fill:#d44140;fill-rule:nonzero;stroke:none;stroke-width:1;stroke-linecap:butt;stroke-linejoin:miter;stroke-miterlimit:4;stroke-dasharray:none;stroke-dashoffset:0"
     transform="translate(3.5,3.5)"
     d="m 83.963,0 h 0.615 l 1.205,0.002 c 13.673,0.024 20.907,0.328 26.097,4.108 1.82447,1.3235117 3.43144,2.9233921 4.763,4.742 3.998,5.494 4.103,13.277 4.11,28.578 v 46.534 c -0.006,14.86 -0.164,22.502 -4.11,27.918 -1.33687,1.82008 -2.94292,3.42613 -4.763,4.763 -5.422,3.946 -13.06,4.104 -27.919,4.11 H 36.77 C 21.91,120.749 14.268,120.591 8.851,116.645 7.0323921,115.31344 5.4325117,113.70647 4.109,111.882 0.33,106.685 0.026,99.454 0.002,85.783 L 10e-4,84.577 V 36.205 L 0.002,35.013 C 0.026,21.293 0.324,14.048 4.109,8.851 5.4278231,7.0288339 7.0285558,5.4284388 8.851,4.11 14.043,0.33 21.278,0.026 34.95,0.002 L 36.155,10e-4 H 36.77 Z M 55.923,29.292 H 43.331 c -3.749,0.007 -5.774,0.082 -7.343,0.877 -1.528995,0.78345 -2.77298,2.027784 -3.556,3.557 -0.796,1.571 -0.87,3.593 -0.878,7.358 v 42.201 c 0.006,3.03 0.065,4.695 0.614,6.027 0.824153,1.987005 2.402995,3.565847 4.39,4.39 1.333,0.55 2.998,0.608 6.028,0.614 h 2.27 c 3.067,-0.005 4.722,-0.062 6.06,-0.613 1.987572,-0.824169 3.566831,-2.403428 4.391,-4.391 0.614,-1.492 0.614,-3.402 0.614,-7.178 l 0.002,-52.843 z m 25.906,0.478 c -7.918,0 -14.336,6.418 -14.336,14.336 0,7.917 6.418,14.335 14.336,14.335 h 0.019 C 89.759641,58.4355 96.168972,52.017642 96.164,44.106 L 96.161,43.79 C 95.993,36.018 89.641,29.77 81.829,29.77 Z"
     id="path2350"
     sodipodi:nodetypes="ccccccccccccccccccccccccccccccccccccccssssccs" /></svg>
